<mxfile host="app.diagrams.net" modified="2023-04-01T20:22:03.461Z" agent="Mozilla/5.0 (X11; CrOS x86_64 14541.0.0) AppleWebKit/537.36 (KHTML, like Gecko) Chrome/111.0.0.0 Safari/537.36" version="21.1.2" etag="TXtmR1562_HQwJvE8f8i" type="github">
  <diagram name="Page-1" id="2p2Ag4CRv5B_u7PF56Pd">
    <mxGraphModel>
      <root>
        <mxCell id="0" />
        <mxCell id="1" parent="0" />
      </root>
    </mxGraphModel>
  </diagram>
</mxfile>
